<svg width="556" height="436" viewBox="0 0 556 436" fill="none" xmlns="http://www.w3.org/2000/svg">
<path fill-rule="evenodd" clip-rule="evenodd" d="M244.542 0.191383C310.828 -1.39186 376.968 6.37521 430.127 41.3019C492.421 82.2308 556.207 136.358 555.999 204.827C555.792 273.217 488.527 323.449 429.136 367.479C376.056 406.83 313.865 433.513 244.542 435.726C172.374 438.029 95.1688 426.371 46.0746 379.704C-1.83708 334.162 -2.6316 266.813 1.63135 204.827C5.57538 147.478 21.624 89.6369 68.7539 49.9333C114.998 10.976 180.587 1.71895 244.542 0.191383Z" fill="#0064E5" fill-opacity="0.1"/>
<path fill-rule="evenodd" clip-rule="evenodd" d="M251.162 43.1536C304.333 41.8827 357.388 48.1177 400.03 76.1552C449.999 109.011 501.166 152.462 501 207.425C500.833 262.325 446.876 302.65 399.235 337.995C356.656 369.584 306.77 391.004 251.162 392.78C193.271 394.629 131.34 385.27 91.9591 347.808C53.5264 311.249 52.889 257.185 56.3086 207.425C59.4723 161.389 72.3459 114.956 110.152 83.0841C147.246 51.811 199.86 44.3799 251.162 43.1536Z" fill="url(#paint0_radial_135258_3502)" fill-opacity="0.2"/>
<defs>
<radialGradient id="paint0_radial_135258_3502" cx="0" cy="0" r="1" gradientUnits="userSpaceOnUse" gradientTransform="translate(228.5 205) rotate(65.6944) scale(181.212 230.912)">
<stop stop-color="#4BC9FF" stop-opacity="0.88"/>
<stop offset="0.907152" stop-color="#02224A" stop-opacity="0.49"/>
</radialGradient>
</defs>
</svg>
